<?xml version="1.0" standalone="no"?>
<!DOCTYPE svg PUBLIC "-//W3C//DTD SVG 20010904//EN"
 "http://www.w3.org/TR/2001/REC-SVG-20010904/DTD/svg10.dtd">
<svg version="1.0" xmlns="http://www.w3.org/2000/svg"
 width="420.000000pt" height="594.000000pt" viewBox="0 0 420.000000 594.000000"
 preserveAspectRatio="xMidYMid meet">

<g transform="translate(0.000000,594.000000) scale(0.100000,-0.100000)"
fill="#000000" stroke="none">
<path d="M640 3599 c-60 -24 -105 -93 -116 -179 l-7 -53 41 41 c71 71 193 91
244 40 18 -18 20 -28 14 -88 -5 -59 -3 -69 14 -85 29 -26 68 -13 86 30 41 98
-2 240 -86 283 -48 24 -143 29 -190 11z"/>
<path d="M590 3403 c-14 -9 -30 -24 -37 -33 -19 -23 -16 -75 5 -93 30 -27 77
-19 83 13 4 23 -12 130 -20 130 -4 0 -18 -8 -31 -17z"/>
<path d="M2869 3360 c-56 -10 -96 -29 -131 -67 -94 -98 -97 -307 -6 -417 44
-54 97 -76 183 -75 69 0 70 0 45 17 -14 9 -42 32 -63 51 -105 94 -127 240 -50
331 21 26 32 30 72 30 27 0 62 -5 80 -11 67 -23 117 20 90 77 -26 51 -122 80
-220 64z"/>
<path d="M1280 3334 c-21 -25 -16 -75 9 -96 19 -15 41 -18 121 -18 97 0 99 0
123 -30 46 -54 47 -166 3 -217 -18 -21 -34 -27 -79 -31 l-57 -4 0 121 0 121
-29 0 c-39 0 -83 17 -98 37 -11 14 -13 -19 -13 -175 0 -242 -7 -232 149 -232
117 0 158 9 209 47 51 38 75 95 80 192 8 150 -31 241 -122 282 -56 25 -276 28
-296 3z"/>
<path d="M2300 3337 c-34 -17 -70 -74 -70 -111 0 -38 -9 -53 -35 -57 -31 -6
-29 -80 3 -94 18 -8 22 -18 22 -55 1 -45 1 -45 16 -20 27 43 64 63 128 69 51
5 62 10 72 30 20 40 3 66 -46 69 -42 3 -42 4 -36 35 7 35 20 47 53 47 45 0 69
53 37 84 -19 20 -108 21 -144 3z"/>
<path d="M616 3200 c-60 -24 -111 -71 -128 -119 -7 -20 -12 -84 -13 -143 0
-120 10 -141 64 -141 52 0 61 16 61 113 0 48 5 101 11 118 15 44 65 65 146 60
85 -5 112 -30 116 -108 l2 -55 -117 -3 -118 -3 0 -38 c0 -24 -8 -48 -21 -65
l-20 -26 166 0 c122 0 175 4 200 14 39 17 38 11 35 156 -2 104 -15 149 -57
192 -62 65 -224 88 -327 48z"/>
<path d="M1880 3179 c-32 -13 -78 -56 -96 -91 -8 -15 -14 -51 -14 -80 l1 -53
16 30 c36 69 90 105 158 105 34 0 75 -27 75 -50 0 -6 -34 -10 -81 -10 -79 0
-82 -1 -115 -34 -115 -115 83 -250 251 -170 27 13 35 22 35 43 0 43 -14 49
-104 44 -71 -5 -84 -3 -101 13 -18 19 -16 19 90 22 60 1 114 7 121 13 17 14
24 60 14 103 -10 45 -52 93 -97 112 -37 16 -116 17 -153 3z"/>
<path d="M3285 3181 c-16 -6 -11 -9 22 -13 83 -11 133 -72 133 -161 0 -62 -29
-97 -80 -97 -98 0 -111 149 -16 175 l39 11 -33 27 c-66 56 -166 23 -190 -61
-32 -116 21 -217 129 -248 92 -27 183 -6 234 55 78 93 52 247 -51 297 -40 19
-155 29 -187 15z"/>
<path d="M3788 3179 c-13 -7 -18 -23 -18 -54 0 -43 1 -44 28 -39 50 9 56 -5
63 -127 5 -101 8 -114 28 -131 28 -22 50 -23 79 -2 21 14 22 22 22 135 0 140
-16 185 -74 213 -38 18 -102 21 -128 5z"/>
<path d="M3644 3166 c-17 -13 -19 -29 -22 -158 -3 -134 -2 -145 18 -171 26
-32 62 -35 90 -7 18 18 20 33 20 165 0 132 -2 147 -20 165 -23 23 -58 26 -86
6z"/>
<path d="M2295 3025 c-16 -9 -38 -25 -47 -36 -26 -30 -33 -99 -14 -142 14 -34
18 -37 55 -37 54 0 61 16 61 134 0 104 -2 108 -55 81z"/>
<path d="M2985 2940 c-11 -5 -32 -9 -48 -9 -27 -1 -27 -1 -12 -31 32 -62 116
-89 155 -50 24 24 25 48 4 78 -16 23 -60 29 -99 12z"/>
<path d="M2507 2922 c-21 -23 -22 -76 -1 -96 38 -38 104 -5 104 51 0 52 -70
82 -103 45z"/>
<path d="M1873 2335 c-79 -40 -116 -101 -129 -215 l-7 -63 37 41 c44 48 122
89 187 98 35 5 57 1 92 -14 55 -25 62 -44 53 -142 -6 -61 -5 -71 13 -89 36
-36 79 -23 108 32 12 22 17 56 18 112 0 69 -4 88 -30 140 -21 41 -43 69 -73
89 -37 26 -52 30 -130 34 -79 3 -92 1 -139 -23z"/>
<path d="M1842 2113 c-81 -39 -104 -112 -53 -164 36 -35 54 -36 86 -4 28 27
28 25 12 117 l-12 67 -33 -16z"/>
<path d="M1876 1864 c-70 -22 -123 -61 -154 -113 -26 -44 -27 -54 -30 -198 -4
-142 -3 -152 17 -172 12 -12 34 -21 50 -21 76 0 93 34 89 174 -3 93 -1 108 18
133 26 35 72 52 147 52 112 2 159 -36 165 -135 l4 -64 -146 0 -146 0 0 -45 c0
-48 -20 -98 -44 -112 -8 -4 85 -7 207 -5 252 4 272 9 283 69 4 20 4 86 0 147
-11 177 -60 253 -189 291 -64 19 -207 18 -271 -1z"/>
</g>
</svg>
